<?xml version="1.0" encoding="UTF-8"?>
<svg width="685px" height="223px" viewBox="0 0 685 223" version="1.1" xmlns="http://www.w3.org/2000/svg" xmlns:xlink="http://www.w3.org/1999/xlink">
    <title>Blacksad-Logo</title>
    <g id="Page-1" stroke="none" stroke-width="1" fill="none" fill-rule="evenodd">
        <g id="03.Blacksad-whole-website" transform="translate(-378.000000, -89.000000)" fill="#FFE300" fill-rule="nonzero">
            <g id="Blacksad-Logo" transform="translate(378.000000, 89.000000)">
                <path d="M587.319445,218.694621 C602.328028,218.575846 602.726095,209.148087 602.681865,198.57712 C602.416487,137.526816 602.51969,76.4765122 602.195339,15.4262082 C602.195339,13.1397912 599.585792,10.3485808 597.477513,8.74511953 C595.044884,6.90410842 591.742406,6.11722464 586.847662,3.99412311 C590.666152,3.56356406 592.376364,3.22208619 594.086576,3.22208619 C607.090083,3.22208619 620.123077,3.47448288 633.111841,3.11815814 C647.855047,2.70244596 658.514385,9.26475976 666.180852,21.4391881 C676.501096,37.9340538 680.61445,56.552021 682.663756,75.5114661 C686.600191,111.856589 686.452759,148.157171 675.18895,183.373932 C671.962649,193.156048 667.182813,202.346714 661.035473,210.588233 C657.467617,215.413464 650.449851,220.015992 644.700001,220.40201 C626.226764,221.6343 607.606096,220.862263 589.0444,220.862263 C588.439928,220.149613 587.909173,219.422117 587.319445,218.694621 Z M671.355717,112.717707 C670.367922,99.3555294 669.881396,85.993352 668.259644,72.8390306 C666.062906,55.6166686 662.362361,38.6912438 651.422903,24.497642 C644.537826,15.5895237 635.691902,10.4673557 623.838365,13.0358632 C619.415403,14.0009093 617.233409,16.1833983 617.233409,21.1422508 C617.233409,80.5297061 617.012261,139.82808 617.071234,199.156148 C617.17647,202.034163 618.34962,204.767801 620.358969,206.81713 C628.482475,214.418724 640.114864,214.62658 647.309548,206.149021 C652.974515,199.392155 657.497171,191.742878 660.696379,183.507553 C669.498073,160.821546 670.603813,136.769626 671.355717,112.717707 Z M629.396554,7.94338888 C644.272448,9.30930036 653.33952,18.3361936 659.546409,31.0005684 C661.920551,35.6041563 663.808198,40.4460266 665.178314,45.4465669 C676.250461,89.8980771 676.972878,134.52775 665.178314,178.845638 C660.829068,195.177188 654.990759,211.924451 634.217582,216.85361 C644.773717,218.249215 651.909429,213.513065 656.33239,206.208408 C662.156009,196.850374 666.745296,186.768798 669.984599,176.217743 C680.142667,140.154711 680.039465,103.319642 673.891548,66.7072759 C671.517892,52.5879084 666.402,38.5873158 660.372029,25.5369225 C654.710638,13.2288724 643.933354,6.35477446 629.396554,7.94338888 Z M608.815039,216.942691 L608.815039,8.28486675 C604.893346,13.1694849 604.745914,208.836303 608.815039,216.942691 Z" id="Shape"></path>
                <path d="M0,217.521482 C14.9962621,217.061184 16.3662546,207.795826 16.3220613,196.303219 C16.0863637,136.197181 16.3220613,76.0317498 16.4546413,15.9851051 C16.4546413,10.803038 15.0993798,7.59579886 9.6930653,6.57126412 C6.83982101,5.98394503 4.2629956,4.45272155 2.37170747,2.22070356 L11.2103688,2.22070356 C22.0082668,2.22070356 32.835627,2.65130511 43.6187939,2.10191692 C54.8291627,1.56737706 62.0179406,7.09095565 66.1426493,16.6235832 C75.8799079,39.1336508 76.0566811,62.3564383 68.5143567,85.3713491 C66.2899603,92.1124907 61.2519233,97.8736426 57.4512989,104.139638 C68.2050036,106.262949 74.7161508,114.771042 78.3841953,125.699412 C87.1050078,151.669141 87.0608145,177.668566 76.7785051,203.222541 C72.1382079,214.759693 63.5205131,220.29812 50.9106895,220.060547 C34.3529305,219.733883 17.7951716,220.060547 1.22268149,220.060547 L0,217.521482 Z M29.9188687,157.682714 L30.0219865,157.682714 L30.0219865,190.987517 C29.9300884,193.700401 30.142582,196.415066 30.6554239,199.079857 C31.2446679,201.54468 31.9812231,204.900402 33.7784175,205.98433 C46.8301742,213.868793 60.058704,214.982418 66.1868426,197.223816 C73.9477039,175.164693 73.7756495,151.058818 65.7007162,129.114528 C60.3975194,114.013777 50.0857478,107.881417 36.8277557,109.663216 C31.6276766,110.361088 29.7862888,112.514096 29.8894065,117.740708 C30.1103731,131.059659 29.9188687,144.393459 29.9188687,157.712411 L29.9188687,157.682714 Z M29.7420955,56.0013532 C29.7420955,68.607585 29.9041376,81.2435135 29.6537089,93.8200486 C29.5653223,98.5863624 31.8191809,100.457252 35.9291585,101.244213 C44.8856687,103.189345 52.8993883,98.7348457 55.9781887,87.2422386 C59.0569891,75.7496315 61.4286965,63.4849113 61.060419,51.6062477 C60.7068725,40.3512139 57.2156013,28.9180001 53.4002458,18.1826578 C52.0449844,14.3666371 46.0346946,11.1000046 41.5122462,9.83789662 C34.7801325,7.9670071 29.7273644,12.1393877 29.7273644,19.2665859 C29.5358601,31.6055478 29.7420955,56.0310499 29.7420955,56.0310499 L29.7420955,56.0013532 Z M20.0490302,213.646068 C24.4683609,209.458839 24.9544873,13.7578556 20.4762322,8.02640041 C18.7674243,76.4623513 19.3566684,145.061634 20.0490302,213.646068 Z M56.8767859,106.738095 L55.9339954,107.911113 C59.6609643,113.53863 64.374917,118.750394 66.9086666,124.867906 C76.6017319,148.313418 75.9535634,172.486499 69.2361807,196.570489 C66.7908178,205.286459 62.2536383,212.903652 52.3248753,215.383323 C59.4989221,216.348464 63.8593284,212.057297 66.8055489,206.711898 C82.5825594,178.277347 81.4629956,149.070683 69.0299453,119.997654 C66.7318934,114.771042 61.0014946,111.088656 56.891517,106.634157 L56.8767859,106.738095 Z M50.6749919,100.947247 L52.8404639,102.43208 C55.8898021,97.621221 60.5448304,93.1518738 61.6791253,87.9252618 C64.5412414,74.9718788 66.3249947,61.8001714 67.0117843,48.5474918 C67.5126418,36.3718615 65.1851276,24.2407763 57.4512989,14.2478505 C54.6671206,10.6248581 50.262521,8.30851868 46.1378124,4.96764452 C50.557143,10.6990997 55.4331379,15.0051153 57.7901143,20.4099073 C64.6253457,36.0006533 63.9035217,52.6456307 62.504067,69.2015182 C61.5760076,80.9465469 59.2337623,92.0382491 50.7191852,100.873005 L50.6749919,100.947247 Z" id="Shape"></path>
                <path d="M338.057575,3.09954751 L380.16098,3.09954751 C378.550144,4.25718684 377.604332,5.53355842 376.569851,5.74133984 C367.274294,7.22549283 364.747203,12.746542 364.924543,21.710826 C365.38267,47.5350881 365.087104,73.3741916 366.801388,99.9702133 C379.274281,70.2871534 391.79151,40.4408368 404.353073,10.4312633 L390.91959,4.49465132 L391.156043,3.42606117 L422.988522,3.42606117 C402.845686,13.5183015 402.609233,34.7713723 393.771804,50.7557001 C388.658508,59.9722901 385.067379,70.0496889 381.21024,79.9489894 C380.026315,82.8167605 379.793138,85.9911206 380.545216,89.0023226 C393.653577,128.569841 406.806273,168.107677 420.638771,207.408048 C422.39739,212.409644 428.131374,215.986453 431.870287,220.067873 L393.062445,220.067873 C393.683134,219.118015 393.919587,218.272048 394.333379,218.168157 C402.845686,216.105185 403.791498,210.955174 401.293963,203.326628 C391.200378,172.396879 381.417136,141.348399 371.50089,110.374126 C371.205324,109.468792 370.510744,108.711874 368.027988,107.613601 C366.742275,114.307131 364.392523,120.970978 364.362967,127.694191 C364.362967,153.147415 365.353114,178.61548 365.190552,204.068704 C365.190552,212.068289 367.998431,215.852879 375.343251,217.203458 C377.085118,217.559189 378.651219,218.508112 379.776744,219.889775 L337.880235,219.889775 C337.880667,219.475569 337.925256,219.0626 338.01324,218.657928 C351.210271,217.411239 350.530469,207.556464 350.574804,198.221141 C350.821109,145.781069 351.052636,93.3756268 351.269384,41.0048149 C351.269384,33.58405 350.69303,26.163285 350.988596,18.74252 C351.254606,12.1677223 349.37776,7.81915402 342.461511,6.49825786 C340.838063,5.9459323 339.289252,5.19314042 337.850679,4.25718684 L338.057575,3.09954751 Z M354.757065,8.0566185 L354.757065,215.748988 C359.26445,210.257622 359.190558,12.9691649 354.757065,8.0566185 Z M374.545222,97.105798 L372.609264,97.4916778 C372.609264,100.014738 371.973796,102.730738 372.712712,105.016333 C384.101863,140.398541 395.643723,175.746118 407.338292,211.059065 C407.88509,212.706474 409.865383,213.878955 411.195431,215.274059 L412.983606,213.982846 L374.545222,97.105798 Z" id="Shape"></path>
                <path d="M256.521039,220.067873 L216.559358,220.067873 L216.158999,219.000352 C219.899059,217.850955 223.563769,216.46939 227.13178,214.863705 C228.925978,213.94445 231.431924,211.57218 231.268815,210.119164 C229.089087,190.60724 226.494173,171.139796 224.017883,151.820619 L186.265586,151.820619 C184.056201,165.935628 181.817161,179.72445 179.74123,193.513272 C179.622605,194.254606 179.622605,194.995941 179.533636,195.737275 C177.383564,212.684182 177.383564,212.684182 193.472034,219.741686 L161.176471,219.741686 C175.752475,215.293679 173.409638,201.949658 175.144524,191.659935 C183.077548,144.748288 190.061575,97.6735477 197.475616,50.6729405 C199.818453,35.8462505 202.2898,21.0195606 204.889657,6.19287061 C205.215875,4.36918775 206.817308,2.75307854 207.855273,1.0331825 C208.982208,2.82721199 210.82089,4.48780126 211.147108,6.41527096 C218.561149,49.4126718 225.708284,92.4990329 233.122326,135.51126 C237.022111,158.107136 241.426052,180.599225 245.399978,203.180273 C246.660365,210.341565 248.840093,216.524294 257.262443,218.436937 L256.521039,220.067873 Z M222.194029,142.346365 C216.396249,109.475593 210.880202,78.1319703 205.349328,46.773521 L203.021319,46.773521 C197.875974,78.2505838 192.745458,109.727647 187.407348,142.346365 L222.194029,142.346365 Z M239.691166,213.89997 C229.029775,150.145203 218.368384,86.3904366 207.588368,22.0277755 C204.800689,30.5531222 233.063013,207.880334 239.691166,213.914797 L239.691166,213.89997 Z" id="Shape"></path>
                <path d="M583.748115,220.067873 L545.426907,220.067873 L544.98474,218.99999 C548.581038,217.679968 552.354203,216.775234 555.670461,214.861943 C557.46861,213.808892 559.561537,210.887045 559.340453,209.077576 C557.178744,191.487168 554.687866,173.926424 551.867818,156.395343 C551.558301,154.496884 548.920033,151.604701 547.166101,151.530542 C536.421424,151.085591 525.662008,151.308067 513.915084,151.308067 C511.394728,171.152894 508.859633,190.419285 506.69301,209.745003 C506.516143,211.376491 508.535376,214.016536 510.215614,214.950933 C513.325527,216.715907 516.936564,217.546483 520.223344,219.815734 L489.728507,219.815734 C502.123943,215.544202 501.269086,204.390756 502.831412,194.601828 C512.529625,133.46552 522.24749,72.3242678 531.985007,11.178072 C532.545086,7.67778851 534.54958,4.39998064 535.876084,1.0331825 C537.43841,4.51863431 539.796638,7.87060074 540.415673,11.5192014 C550.408664,70.3565943 560.151094,129.223651 570.040914,188.016548 C571.264244,195.298918 572.310708,202.759268 574.801587,209.641181 C576.187046,213.482594 580.431856,216.330282 583.748115,220.067873 Z M533.4589,46.4182146 L531.115411,46.4923731 C526.001003,77.9949248 520.901335,109.497477 515.580583,142.290387 L550.158103,142.290387 C544.395183,109.334328 538.927041,77.8762711 533.4589,46.4182146 Z M535.964517,22.6874789 L533.738939,22.6874789 C533.738939,26.4399014 533.252555,30.2813143 533.827373,33.9447466 C536.952025,53.656089 540.371456,73.3081045 543.628759,92.9897835 C549.995974,131.374249 556.353364,169.768601 562.700929,208.172842 C563.09888,210.545916 564.277994,212.785504 565.648714,216.74557 C566.709916,213.986872 567.122606,213.512258 567.034173,213.09697 C556.707099,149.557925 546.350547,86.063375 535.964517,22.6133203 L535.964517,22.6874789 Z" id="Shape"></path>
                <path d="M330.618401,185.876993 C328.166777,197.30151 325.700385,208.726026 323.485062,219.039208 C316.410798,219.987547 310.429426,220.624712 304.521899,221.617504 C290.151839,224.017986 279.63644,217.898238 271.76466,206.518175 C259.491772,188.736827 254.928207,168.347547 252.358433,147.454463 C248.119782,113.136461 249.404669,79.0259075 258.398879,45.4784303 C262.002471,32.0535123 267.038638,19.2361237 276.904209,8.96739502 C283.119087,2.05922195 292.424989,-1.17789385 301.568135,0.387894442 C310.739572,1.6770422 320.088234,2.03266916 329.998111,2.92173658 L329.998111,41.5813515 L329.37782,41.7295294 C328.565535,35.6986887 327.472643,29.5937591 327.029578,23.666643 C326.645589,18.9101323 324.489342,16.4207435 320.088234,14.5092486 C295.306156,3.75153284 281.201935,14.5092486 273.13816,40.7515552 C261.928627,77.2033193 261.76617,114.573786 267.732773,152.047978 C270.154859,167.236213 274.039058,181.965097 282.353903,195.093659 C284.561706,198.641692 287.228553,201.880424 290.284758,204.725223 C300.061716,213.734439 312.51183,212.65274 320.339304,201.954296 C324.031508,196.901429 326.734202,191.137309 329.87996,185.654726 L330.618401,185.876993 Z M303.739152,216.994353 C285.88365,215.008769 276.106693,203.006359 270.524079,187.995937 C251.664298,137.333912 252.801497,86.0939935 269.180117,35.0763415 C272.88709,23.5184651 279.222913,12.8496561 291.333344,7.72270064 C295.320925,6.03347254 299.88449,5.72229895 304.182216,4.75914258 C294.25757,2.25493602 285.174747,4.49242235 279.311526,12.3754868 C273.079085,20.7475383 267.127251,29.9197505 263.730423,39.6698565 C250.984932,76.3290697 250.438486,114.173706 255.902949,152.181338 C258.369342,169.325522 262.962444,185.995536 272.798477,200.65033 C280.182886,211.689584 289.206634,219.646737 303.812996,217.053624 L303.739152,216.994353 Z" id="Shape"></path>
                <path d="M85.7650721,3.09954751 L128.528702,3.09954751 C127.797827,3.97467183 127.454763,4.83496353 127.037121,4.90912661 C116.596053,6.68904048 114.164776,13.0374 114.299018,23.0939133 C114.647054,80.1401529 114.512812,137.181448 113.896291,194.217799 C113.821712,202.657558 117.46117,206.543703 124.665507,208.412612 C128.461554,209.523983 132.388469,210.132427 136.344587,210.222192 C148.411478,210.222192 151.260398,207.537488 153.005547,195.701061 C154.24356,187.454127 155.317498,179.19236 158.076923,171.064086 C157.316217,186.356513 156.585342,201.64894 155.63073,216.926534 C155.63073,218.083478 153.065211,220.02655 151.692956,220.02655 C130.094862,220.130379 108.437105,220.02655 86.8986737,219.848559 C86.5406942,219.848559 86.1976306,219.270087 84.7209653,217.994482 C102.36637,217.045195 99.6367762,204.645128 99.6367762,193.802486 C99.9748679,141.393911 100.273184,89.034778 100.531725,36.725087 C100.531725,34.0107184 100.26324,31.2963497 100.143914,28.5819811 C99.8754291,22.9159219 101.202936,16.4637342 98.8909856,11.8062929 C96.8773512,7.92014758 90.657458,6.15506632 85.7650721,3.09954751 Z M103.440308,214.760972 C108.049293,209.302569 107.915051,12.8890738 103.440308,7.72732357 L103.440308,214.760972 Z" id="Shape"></path>
                <path d="M439.102564,219.110368 L439.102564,171.031482 C440.593519,182.120907 442.084474,191.045819 442.815042,200.044859 C443.515791,208.080244 449.49452,210.719172 455.488159,212.794733 C461.705442,214.944421 466.819417,211.920032 469.905694,206.479097 C479.567082,189.533625 481.997339,171.120435 475.958971,152.944451 C471.486106,139.60156 464.225156,126.970289 457.053662,114.680003 C440.116413,85.6666267 435.181352,55.2596593 444.738374,22.9550362 C446.436418,17.5671303 448.950192,12.4679606 452.193149,7.83309239 C456.666014,1.36920269 463.106939,-1.06216867 471.053729,0.420374841 C475.645871,1.29507551 480.342379,1.63606052 485.963279,2.33285597 L485.963279,43.666169 L485.083616,43.7402962 C484.472324,37.1874539 483.801394,30.6346116 483.264651,24.0817693 C482.63845,16.6690517 476.778997,9.90865331 469.69696,8.81157111 C461.645803,7.55140913 457.76932,12.9626929 455.085602,18.9225179 C449.375244,31.7020429 448.793771,45.1783634 451.343305,58.8177637 C454.191029,74.0286601 462.778929,86.5561528 471.068639,99.0984709 C491.643818,130.231885 493.790793,163.544637 484.367957,198.428886 C482.898648,203.393885 480.622199,208.086359 477.628841,212.320319 C472.291222,220.133323 464.597894,223.380093 455.040873,221.704819 C450.016355,220.904246 444.947108,220.059196 439.102564,219.110368 Z M466.07394,3.88952665 C456.949295,4.12673362 452.431702,10.2644637 449.285787,17.3361963 C441.324087,35.2601473 440.459333,54.058799 443.679796,73.139134 C446.900259,92.219469 456.576557,108.230939 466.536136,124.094154 C477.300831,141.247183 482.250801,159.675199 480.044188,179.763663 C478.419047,194.500146 476.734268,209.414533 461.258155,217.657475 C471.426468,216.412139 475.869514,208.999421 478.761967,200.830607 C488.080435,174.441332 486.813124,148.526472 473.707629,123.560439 C470.03988,116.577659 465.850296,109.846911 461.556346,103.219942 C448.346485,82.746016 441.950288,60.6561177 446.124962,36.3572295 C448.406123,23.1625923 451.417852,9.93830418 466.07394,3.88952665 Z" id="Shape"></path>
            </g>
        </g>
    </g>
</svg>